<svg width="49" height="49" viewBox="0 0 49 49" fill="none" xmlns="http://www.w3.org/2000/svg">
<g filter="url(#filter0_d_1_113)">
<path d="M29.3231 41H30.7636C33.2858 31.6042 44.1458 19.3133 44.1458 9.15843C44.1458 6.59572 43.4765 4.2232 41.83 2.04093C41.366 1.47114 41.2117 0.474677 41.7268 0.0951133L41.6235 0C36.425 3.36896 28.9626 9.34867 28.2414 15.3274C27.8297 18.7444 29.4774 20.2627 31.2273 20.2627C33.3369 20.2627 35.4474 18.0324 34.058 14.1888C34.006 15.0901 33.3889 15.5648 32.7709 15.5648C32.1018 15.5648 31.3816 14.9479 31.5359 13.8092C31.8443 11.5309 33.3369 8.82684 35.8079 6.12191C37.7121 9.15843 38.4325 12.1007 38.4325 14.9479C38.4325 21.5436 34.4186 27.7126 31.5359 34.2612C30.1465 26.1943 20.0067 18.412 20.0067 9.6802C20.0067 2.80006 26.0286 1.09158 28.8083 2.51472C28.4477 2.89517 28.2414 3.32185 28.2414 3.79653C28.2414 4.98233 29.2711 5.64724 30.2487 5.64724C31.3816 5.64724 32.1539 4.79299 32.1539 3.79653C32.1539 1.51826 27.8818 0.237338 22.6831 0.237338C14.4995 0.237338 4 3.36896 4 10.5825C4 12.9078 5.59562 14.7105 8.22002 14.7105C10.8965 14.6634 13.625 12.8127 13.7793 9.53798C13.2124 10.4402 12.4922 10.7247 11.823 10.7247C10.6911 10.7247 10.1763 9.87044 10.1763 8.92109C10.1763 5.31478 15.5803 2.27827 21.1906 2.04093C17.5876 4.27121 15.5292 8.20994 15.5292 12.6705C15.5292 22.9676 29.6828 31.9358 29.3231 41Z" fill="#E76E00"/>
</g>
<defs>
<filter id="filter0_d_1_113" x="0" y="0" width="48.1458" height="49" filterUnits="userSpaceOnUse" color-interpolation-filters="sRGB">
<feFlood flood-opacity="0" result="BackgroundImageFix"/>
<feColorMatrix in="SourceAlpha" type="matrix" values="0 0 0 0 0 0 0 0 0 0 0 0 0 0 0 0 0 0 127 0" result="hardAlpha"/>
<feOffset dy="4"/>
<feGaussianBlur stdDeviation="2"/>
<feComposite in2="hardAlpha" operator="out"/>
<feColorMatrix type="matrix" values="0 0 0 0 0 0 0 0 0 0 0 0 0 0 0 0 0 0 0.25 0"/>
<feBlend mode="normal" in2="BackgroundImageFix" result="effect1_dropShadow_1_113"/>
<feBlend mode="normal" in="SourceGraphic" in2="effect1_dropShadow_1_113" result="shape"/>
</filter>
</defs>
</svg>
